o Box
v -1.3739546537399292 58.05165682759025 41.64776611328125
v 1.3739546537399292 58.05165682759025 41.64776611328125
v -1.3739546537399292 58.05165682759025 -41.64776611328125
v 1.3739546537399292 58.05165682759025 41.64776611328125
v 1.3739546537399292 58.05165682759025 -41.64776611328125
v -1.3739546537399292 58.05165682759025 -41.64776611328125
v -1.3739546537399292 -10.120467442095736 -41.64776611328125
v 1.3739546537399292 -10.120467442095736 -41.64776611328125
v -1.3739546537399292 -10.120467442095736 41.64776611328125
v 1.3739546537399292 -10.120467442095736 -41.64776611328125
v 1.3739546537399292 -10.120467442095736 41.64776611328125
v -1.3739546537399292 -10.120467442095736 41.64776611328125
v -1.3739546537399292 -10.120467442095736 -41.64776611328125
v -1.3739546537399292 -10.120467442095736 41.64776611328125
v -1.3739546537399292 58.05165682759025 -41.64776611328125
v -1.3739546537399292 -10.120467442095736 41.64776611328125
v -1.3739546537399292 58.05165682759025 41.64776611328125
v -1.3739546537399292 58.05165682759025 -41.64776611328125
v 1.3739546537399292 -10.120467442095736 41.64776611328125
v 1.3739546537399292 -10.120467442095736 -41.64776611328125
v 1.3739546537399292 58.05165682759025 41.64776611328125
v 1.3739546537399292 -10.120467442095736 -41.64776611328125
v 1.3739546537399292 58.05165682759025 -41.64776611328125
v 1.3739546537399292 58.05165682759025 41.64776611328125
v -1.3739546537399292 -10.120467442095736 41.64776611328125
v 1.3739546537399292 -10.120467442095736 41.64776611328125
v -1.3739546537399292 58.05165682759025 41.64776611328125
v 1.3739546537399292 -10.120467442095736 41.64776611328125
v 1.3739546537399292 58.05165682759025 41.64776611328125
v -1.3739546537399292 58.05165682759025 41.64776611328125
v -1.3739546537399292 58.05165682759025 -41.64776611328125
v 1.3739546537399292 58.05165682759025 -41.64776611328125
v -1.3739546537399292 -10.120467442095736 -41.64776611328125
v 1.3739546537399292 58.05165682759025 -41.64776611328125
v 1.3739546537399292 -10.120467442095736 -41.64776611328125
v -1.3739546537399292 -10.120467442095736 -41.64776611328125
vt 0 1
vt 0 0
vt 1 1
vt 0 0
vt 1 0
vt 1 1
vt 0 1
vt 0 0
vt 1 1
vt 0 0
vt 1 0
vt 1 1
vt 0 1
vt 0 0
vt 1 1
vt 0 0
vt 1 0
vt 1 1
vt 0 1
vt 0 0
vt 1 1
vt 0 0
vt 1 0
vt 1 1
vt 0 1
vt 0 0
vt 1 1
vt 0 0
vt 1 0
vt 1 1
vt 0 1
vt 0 0
vt 1 1
vt 0 0
vt 1 0
vt 1 1
vn 2.3493181173612244e-16 1 0
vn 2.3493181173612244e-16 1 0
vn 2.3493181173612244e-16 1 0
vn 2.3493181173612244e-16 1 0
vn 2.3493181173612244e-16 1 0
vn 2.3493181173612244e-16 1 0
vn -2.3493181173612244e-16 -1 0
vn -2.3493181173612244e-16 -1 0
vn -2.3493181173612244e-16 -1 0
vn -2.3493181173612244e-16 -1 0
vn -2.3493181173612244e-16 -1 0
vn -2.3493181173612244e-16 -1 0
vn -1 2.0986432849522838e-16 0
vn -1 2.0986432849522838e-16 0
vn -1 2.0986432849522838e-16 0
vn -1 2.0986432849522838e-16 0
vn -1 2.0986432849522838e-16 0
vn -1 2.0986432849522838e-16 0
vn 1 -2.0986432849522838e-16 0
vn 1 -2.0986432849522838e-16 0
vn 1 -2.0986432849522838e-16 0
vn 1 -2.0986432849522838e-16 0
vn 1 -2.0986432849522838e-16 0
vn 1 -2.0986432849522838e-16 0
vn 0 0 1
vn 0 0 1
vn 0 0 1
vn 0 0 1
vn 0 0 1
vn 0 0 1
vn 0 0 -1
vn 0 0 -1
vn 0 0 -1
vn 0 0 -1
vn 0 0 -1
vn 0 0 -1
f 1/1/1 2/2/2 3/3/3
f 4/4/4 5/5/5 6/6/6
f 7/7/7 8/8/8 9/9/9
f 10/10/10 11/11/11 12/12/12
f 13/13/13 14/14/14 15/15/15
f 16/16/16 17/17/17 18/18/18
f 19/19/19 20/20/20 21/21/21
f 22/22/22 23/23/23 24/24/24
f 25/25/25 26/26/26 27/27/27
f 28/28/28 29/29/29 30/30/30
f 31/31/31 32/32/32 33/33/33
f 34/34/34 35/35/35 36/36/36
